<svg width="16" height="16" viewBox="0 0 16 16" fill="none" xmlns="http://www.w3.org/2000/svg">
<g clip-path="url(#clip0_602_2098)">
<path d="M13.0406 11.2531L10.8031 11.1031C10.6406 11.0938 10.4813 11.1375 10.35 11.2344C10.2188 11.3313 10.125 11.4656 10.0875 11.625L9.5375 13.8C9.04688 13.9313 8.53125 14 8 14C7.46875 14 6.95312 13.9313 6.4625 13.8L5.9125 11.625C5.87187 11.4688 5.77813 11.3313 5.65 11.2344C5.52187 11.1375 5.35938 11.0938 5.19688 11.1031L2.95937 11.2531C2.40937 10.4031 2.06875 9.40312 2.00938 8.32812L3.90625 7.13438C4.04375 7.04688 4.14375 6.91562 4.19375 6.7625C4.24375 6.60938 4.2375 6.44375 4.17812 6.29375L3.34375 4.2125C4 3.4125 4.85313 2.78125 5.83437 2.40313L7.55937 3.84063C7.68437 3.94375 7.84062 4 8 4C8.15938 4 8.31875 3.94375 8.44063 3.84063L10.1656 2.40313C11.1437 2.78125 12 3.4125 12.6531 4.2125L11.8188 6.29375C11.7594 6.44375 11.7531 6.60938 11.8031 6.7625C11.8531 6.91562 11.9563 7.04688 12.0906 7.13438L13.9875 8.32812C13.9281 9.40312 13.5875 10.4031 13.0375 11.2531H13.0406ZM8 16C10.1217 16 12.1566 15.1571 13.6569 13.6569C15.1571 12.1566 16 10.1217 16 8C16 5.87827 15.1571 3.84344 13.6569 2.34315C12.1566 0.842855 10.1217 0 8 0C5.87827 0 3.84344 0.842855 2.34315 2.34315C0.842855 3.84344 0 5.87827 0 8C0 10.1217 0.842855 12.1566 2.34315 13.6569C3.84344 15.1571 5.87827 16 8 16ZM8.44063 5.82188C8.17813 5.63125 7.82187 5.63125 7.55937 5.82188L6.0625 6.90625C5.8 7.09688 5.69063 7.43438 5.79063 7.74375L6.3625 9.50313C6.4625 9.8125 6.75 10.0219 7.075 10.0219H8.925C9.25 10.0219 9.5375 9.8125 9.6375 9.50313L10.2094 7.74375C10.3094 7.43438 10.2 7.09688 9.9375 6.90625L8.44063 5.81875V5.82188Z" fill="#EA580C"/>
</g>
<defs>
<clipPath id="clip0_602_2098">
<path d="M0 0H16V16H0V0Z" fill="white"/>
</clipPath>
</defs>
</svg>
