<svg width="20" height="16" viewBox="0 0 20 16" fill="none" xmlns="http://www.w3.org/2000/svg">
<g clip-path="url(#clip0_602_2089)">
<path d="M6.61893 0C6.86268 0 7.0658 0.178125 7.1408 0.4125C7.52518 1.62188 8.65955 2.5 10.0002 2.5C11.3408 2.5 12.4752 1.62188 12.8596 0.4125C12.9346 0.178125 13.1377 0 13.3814 0H13.7752C14.4783 0 15.1564 0.246875 15.6971 0.696875L19.6408 3.98125C19.847 4.15312 19.9752 4.40312 19.9971 4.67188C20.0189 4.94063 19.9314 5.20625 19.7533 5.40938L18.0033 7.40938C17.647 7.81875 17.0283 7.86563 16.6096 7.51875L15.0002 6.17812V14C15.0002 15.1031 14.1033 16 13.0002 16H7.00018C5.89705 16 5.00018 15.1031 5.00018 14V6.17812L3.3908 7.51875C2.97518 7.86563 2.35643 7.81875 1.99705 7.40938L0.24705 5.40938C0.0689252 5.20625 -0.0185748 4.94063 0.00330024 4.67188C0.0251752 4.40312 0.1533 4.15312 0.35955 3.98125L4.3033 0.696875C4.84393 0.246875 5.52205 0 6.22518 0H6.61893Z" fill="#2563EB"/>
</g>
<defs>
<clipPath id="clip0_602_2089">
<path d="M0 0H20V16H0V0Z" fill="white"/>
</clipPath>
</defs>
</svg>
