<svg width="18" height="14" viewBox="0 0 18 14" fill="none" xmlns="http://www.w3.org/2000/svg">
<path d="M5 0C3.89687 0 3 0.896875 3 2V9C3 10.1031 3.89687 11 5 11H16C17.1031 11 18 10.1031 18 9V2C18 0.896875 17.1031 0 16 0H5ZM12.375 3.33437L15.375 7.83438C15.5281 8.06563 15.5438 8.35938 15.4125 8.60312C15.2812 8.84687 15.0281 9 14.75 9H10.25H8.75H6.25C5.9625 9 5.7 8.83437 5.575 8.575C5.45 8.31563 5.48438 8.00625 5.66563 7.78125L7.66563 5.28125C7.80938 5.10313 8.02188 5 8.25 5C8.47812 5 8.69375 5.10313 8.83438 5.28125L9.375 5.95625L11.125 3.33125C11.2656 3.125 11.5 3 11.75 3C12 3 12.2344 3.125 12.375 3.33437ZM6 3C6 2.73478 6.10536 2.48043 6.29289 2.29289C6.48043 2.10536 6.73478 2 7 2C7.26522 2 7.51957 2.10536 7.70711 2.29289C7.89464 2.48043 8 2.73478 8 3C8 3.26522 7.89464 3.51957 7.70711 3.70711C7.51957 3.89464 7.26522 4 7 4C6.73478 4 6.48043 3.89464 6.29289 3.70711C6.10536 3.51957 6 3.26522 6 3ZM1.5 2.75C1.5 2.33437 1.16562 2 0.75 2C0.334375 2 0 2.33437 0 2.75V9.75C0 12.0969 1.90313 14 4.25 14H14.25C14.6656 14 15 13.6656 15 13.25C15 12.8344 14.6656 12.5 14.25 12.5H4.25C2.73125 12.5 1.5 11.2688 1.5 9.75V2.75Z" fill="#DB2777"/>
</svg>
