<svg width="20" height="16" viewBox="0 0 20 16" fill="none" xmlns="http://www.w3.org/2000/svg">
<path d="M20 16H0V0H20V16Z" stroke="#E5E7EB"/>
<path d="M3 2C3 1.44687 3.44688 1 4 1H5C5.55312 1 6 1.44687 6 2V7V9V14C6 14.5531 5.55312 15 5 15H4C3.44688 15 3 14.5531 3 14V12H2C1.44687 12 1 11.5531 1 11V9C0.446875 9 0 8.55312 0 8C0 7.44688 0.446875 7 1 7V5C1 4.44688 1.44687 4 2 4H3V2ZM17 2V4H18C18.5531 4 19 4.44688 19 5V7C19.5531 7 20 7.44688 20 8C20 8.55312 19.5531 9 19 9V11C19 11.5531 18.5531 12 18 12H17V14C17 14.5531 16.5531 15 16 15H15C14.4469 15 14 14.5531 14 14V9V7V2C14 1.44687 14.4469 1 15 1H16C16.5531 1 17 1.44687 17 2ZM13 7V9H7V7H13Z" fill="white"/>
</svg>
