<svg width="18" height="20" viewBox="0 0 18 20" fill="none" xmlns="http://www.w3.org/2000/svg">
<path d="M7.52941 20H1.88235C1.36471 20 0.921412 19.8043 0.552471 19.413C0.184157 19.021 0 18.55 0 18V4C0 3.45 0.184157 2.979 0.552471 2.587C0.921412 2.19567 1.36471 2 1.88235 2H5.81176C5.98431 1.41667 6.32157 0.937333 6.82353 0.562C7.32549 0.187333 7.87451 0 8.47059 0C9.09804 0 9.65898 0.187333 10.1534 0.562C10.6472 0.937333 10.9804 1.41667 11.1529 2H15.0588C15.5765 2 16.0198 2.19567 16.3887 2.587C16.757 2.979 16.9412 3.45 16.9412 4V9H15.0588V4H13.1765V5C13.1765 5.55 12.9923 6.02067 12.624 6.412C12.2551 6.804 11.8118 7 11.2941 7H5.64706C5.12941 7 4.68643 6.804 4.31812 6.412C3.94918 6.02067 3.76471 5.55 3.76471 5V4H1.88235V18H7.52941V20ZM11.7647 16.125L16.4235 11.175C16.5961 10.9917 16.8157 10.9 17.0824 10.9C17.349 10.9 17.5686 10.9917 17.7412 11.175C17.9137 11.3583 18 11.5917 18 11.875C18 12.1583 17.9137 12.3917 17.7412 12.575L12.4235 18.225C12.2353 18.425 12.0157 18.525 11.7647 18.525C11.5137 18.525 11.2941 18.425 11.1059 18.225L8.42353 15.375C8.25098 15.1917 8.16471 14.9583 8.16471 14.675C8.16471 14.3917 8.25098 14.1583 8.42353 13.975C8.59608 13.7917 8.81569 13.7 9.08235 13.7C9.34902 13.7 9.56863 13.7917 9.74118 13.975L11.7647 16.125ZM8.47059 4C8.73726 4 8.96094 3.904 9.14165 3.712C9.32173 3.52067 9.41177 3.28333 9.41177 3C9.41177 2.71667 9.32173 2.479 9.14165 2.287C8.96094 2.09567 8.73726 2 8.47059 2C8.20392 2 7.98055 2.09567 7.80047 2.287C7.61976 2.479 7.52941 2.71667 7.52941 3C7.52941 3.28333 7.61976 3.52067 7.80047 3.712C7.98055 3.904 8.20392 4 8.47059 4Z" fill="#DC2626"/>
</svg>
