<svg width="16" height="14" viewBox="0 0 16 14" fill="none" xmlns="http://www.w3.org/2000/svg">
<path d="M3 2C3 0.896875 3.89687 0 5 0H14C15.1031 0 16 0.896875 16 2V12C16 13.1031 15.1031 14 14 14H2.5C1.11875 14 0 12.8813 0 11.5V3C0 2.44688 0.446875 2 1 2C1.55313 2 2 2.44688 2 3V11.5C2 11.775 2.225 12 2.5 12C2.775 12 3 11.775 3 11.5V2ZM5 2.75V5.25C5 5.66563 5.33437 6 5.75 6H9.25C9.66562 6 10 5.66563 10 5.25V2.75C10 2.33437 9.66562 2 9.25 2H5.75C5.33437 2 5 2.33437 5 2.75ZM11.5 2.5C11.5 2.775 11.725 3 12 3H13.5C13.775 3 14 2.775 14 2.5C14 2.225 13.775 2 13.5 2H12C11.725 2 11.5 2.225 11.5 2.5ZM11.5 5.5C11.5 5.775 11.725 6 12 6H13.5C13.775 6 14 5.775 14 5.5C14 5.225 13.775 5 13.5 5H12C11.725 5 11.5 5.225 11.5 5.5ZM5 8.5C5 8.775 5.225 9 5.5 9H13.5C13.775 9 14 8.775 14 8.5C14 8.225 13.775 8 13.5 8H5.5C5.225 8 5 8.225 5 8.5ZM5 11.5C5 11.775 5.225 12 5.5 12H13.5C13.775 12 14 11.775 14 11.5C14 11.225 13.775 11 13.5 11H5.5C5.225 11 5 11.225 5 11.5Z" fill="#4F46E5"/>
</svg>
