<svg width="56" height="53" viewBox="0 0 56 53" fill="none" xmlns="http://www.w3.org/2000/svg">
<path d="M53.7562 23.9128C54.3757 23.4513 54.8352 22.8075 55.0703 22.0718C55.3054 21.336 55.3043 20.5451 55.0672 19.8099C54.8301 19.0748 54.3689 18.4323 53.7483 17.9725C53.1276 17.5127 52.3786 17.2587 51.6062 17.2461L36.6062 16.6794C36.5325 16.6743 36.4618 16.648 36.4026 16.6037C36.3435 16.5593 36.2985 16.4988 36.2729 16.4294L31.0896 2.42942C30.8291 1.71715 30.3561 1.10212 29.7346 0.66758C29.113 0.233044 28.373 0 27.6146 0C26.8562 0 26.1161 0.233044 25.4946 0.66758C24.873 1.10212 24.4 1.71715 24.1396 2.42942L18.9729 16.4794C18.9474 16.5488 18.9023 16.6093 18.8432 16.6537C18.784 16.698 18.7133 16.7243 18.6396 16.7294L3.63958 17.2961C2.86725 17.3087 2.11824 17.5627 1.49757 18.0225C0.876893 18.4823 0.415679 19.1248 0.178595 19.8599C-0.0584884 20.5951 -0.0595521 21.386 0.175553 22.1218C0.410658 22.8575 0.870143 23.5013 1.48958 23.9628L13.2562 33.2128C13.3151 33.2591 13.3591 33.3217 13.3828 33.3928C13.4065 33.4639 13.4089 33.5403 13.3896 33.6128L9.33958 47.9628C9.12971 48.6935 9.15004 49.4711 9.39781 50.1899C9.64558 50.9087 10.1088 51.5337 10.7243 51.9799C11.3399 52.4261 12.078 52.6718 12.8382 52.6837C13.5984 52.6955 14.3437 52.4729 14.9729 52.0461L27.4062 43.7128C27.4675 43.6705 27.5402 43.6478 27.6146 43.6478C27.689 43.6478 27.7617 43.6705 27.8229 43.7128L40.2562 52.0461C40.8769 52.4875 41.6196 52.7246 42.3812 52.7246C43.1429 52.7246 43.8856 52.4875 44.5062 52.0461C45.122 51.6041 45.5856 50.9821 45.8333 50.2658C46.081 49.5495 46.1007 48.774 45.8896 48.0461L41.8062 33.6461C41.7846 33.5738 41.7858 33.4966 41.8097 33.425C41.8335 33.3534 41.8789 33.2909 41.9396 33.2461L53.7562 23.9128Z" fill="white"/>
</svg>
